<svg xmlns="http://www.w3.org/2000/svg" xmlns:xlink="http://www.w3.org/1999/xlink" width="1080" zoomAndPan="magnify" viewBox="0 0 810 809.999993" height="1080" preserveAspectRatio="xMidYMid meet" version="1.0"><defs><g/><clipPath id="14e88c9c6b"><path d="M 60.023438 60.023438 L 752.273438 60.023438 L 752.273438 752.273438 L 60.023438 752.273438 Z M 60.023438 60.023438 " clip-rule="nonzero"/></clipPath></defs><g clip-path="url(#14e88c9c6b)"><path fill="#ff5f15" d="M 752.273438 406.148438 C 752.273438 411.8125 752.132812 417.472656 751.855469 423.132812 C 751.578125 428.789062 751.160156 434.4375 750.605469 440.074219 C 750.050781 445.710938 749.359375 451.332031 748.527344 456.933594 C 747.695312 462.539062 746.726562 468.117188 745.621094 473.671875 C 744.515625 479.230469 743.277344 484.753906 741.898438 490.25 C 740.523438 495.742188 739.011719 501.203125 737.367188 506.621094 C 735.722656 512.042969 733.949219 517.421875 732.039062 522.753906 C 730.132812 528.085938 728.09375 533.371094 725.925781 538.605469 C 723.757812 543.835938 721.460938 549.015625 719.039062 554.136719 C 716.617188 559.253906 714.074219 564.3125 711.402344 569.308594 C 708.730469 574.304688 705.941406 579.234375 703.027344 584.089844 C 700.117188 588.949219 697.085938 593.734375 693.941406 598.445312 C 690.792969 603.152344 687.53125 607.785156 684.15625 612.335938 C 680.785156 616.882812 677.300781 621.347656 673.707031 625.726562 C 670.113281 630.105469 666.414062 634.394531 662.609375 638.589844 C 658.804688 642.789062 654.898438 646.890625 650.894531 650.894531 C 646.890625 654.902344 642.789062 658.804688 638.589844 662.609375 C 634.394531 666.414062 630.105469 670.113281 625.726562 673.707031 C 621.347656 677.300781 616.882812 680.785156 612.332031 684.15625 C 607.785156 687.53125 603.152344 690.792969 598.445312 693.941406 C 593.734375 697.085938 588.949219 700.117188 584.089844 703.027344 C 579.234375 705.941406 574.304688 708.730469 569.308594 711.402344 C 564.3125 714.074219 559.253906 716.617188 554.136719 719.039062 C 549.015625 721.460938 543.835938 723.757812 538.605469 725.925781 C 533.371094 728.09375 528.085938 730.132812 522.753906 732.039062 C 517.421875 733.949219 512.042969 735.722656 506.621094 737.367188 C 501.203125 739.011719 495.742188 740.523438 490.25 741.898438 C 484.753906 743.277344 479.230469 744.515625 473.671875 745.621094 C 468.117188 746.726562 462.539062 747.695312 456.933594 748.527344 C 451.332031 749.355469 445.710938 750.050781 440.074219 750.605469 C 434.4375 751.160156 428.789062 751.578125 423.132812 751.855469 C 417.472656 752.132812 411.8125 752.273438 406.148438 752.273438 C 400.484375 752.273438 394.820312 752.132812 389.164062 751.855469 C 383.507812 751.578125 377.859375 751.160156 372.222656 750.605469 C 366.585938 750.050781 360.964844 749.359375 355.359375 748.527344 C 349.757812 747.695312 344.175781 746.726562 338.621094 745.621094 C 333.066406 744.515625 327.539062 743.277344 322.046875 741.898438 C 316.550781 740.523438 311.09375 739.011719 305.671875 737.367188 C 300.253906 735.722656 294.875 733.949219 289.542969 732.039062 C 284.207031 730.132812 278.925781 728.09375 273.691406 725.925781 C 268.457031 723.757812 263.28125 721.460938 258.160156 719.039062 C 253.039062 716.617188 247.980469 714.074219 242.984375 711.402344 C 237.988281 708.730469 233.0625 705.941406 228.203125 703.027344 C 223.34375 700.117188 218.5625 697.085938 213.851562 693.941406 C 209.140625 690.792969 204.511719 687.53125 199.960938 684.15625 C 195.410156 680.785156 190.945312 677.300781 186.566406 673.707031 C 182.1875 670.113281 177.902344 666.414062 173.703125 662.609375 C 169.507812 658.804688 165.40625 654.902344 161.398438 650.894531 C 157.394531 646.890625 153.488281 642.789062 149.6875 638.589844 C 145.882812 634.394531 142.183594 630.105469 138.589844 625.726562 C 134.996094 621.347656 131.511719 616.882812 128.136719 612.335938 C 124.761719 607.785156 121.503906 603.152344 118.355469 598.445312 C 115.207031 593.734375 112.179688 588.949219 109.265625 584.089844 C 106.355469 579.234375 103.5625 574.304688 100.894531 569.308594 C 98.222656 564.3125 95.675781 559.253906 93.253906 554.136719 C 90.832031 549.015625 88.539062 543.835938 86.371094 538.605469 C 84.203125 533.371094 82.164062 528.085938 80.253906 522.753906 C 78.347656 517.421875 76.570312 512.042969 74.925781 506.621094 C 73.28125 501.203125 71.773438 495.742188 70.394531 490.25 C 69.019531 484.753906 67.777344 479.230469 66.671875 473.671875 C 65.566406 468.117188 64.601562 462.539062 63.769531 456.933594 C 62.9375 451.332031 62.246094 445.710938 61.6875 440.074219 C 61.132812 434.4375 60.71875 428.789062 60.441406 423.132812 C 60.160156 417.472656 60.023438 411.8125 60.023438 406.148438 C 60.023438 400.484375 60.160156 394.820312 60.441406 389.164062 C 60.71875 383.507812 61.132812 377.859375 61.6875 372.222656 C 62.246094 366.585938 62.9375 360.964844 63.769531 355.359375 C 64.601562 349.757812 65.566406 344.179688 66.671875 338.621094 C 67.777344 333.066406 69.019531 327.539062 70.394531 322.046875 C 71.773438 316.550781 73.28125 311.09375 74.925781 305.671875 C 76.570312 300.253906 78.347656 294.875 80.253906 289.542969 C 82.164062 284.207031 84.203125 278.925781 86.371094 273.691406 C 88.539062 268.457031 90.832031 263.28125 93.253906 258.160156 C 95.675781 253.039062 98.222656 247.980469 100.894531 242.984375 C 103.5625 237.988281 106.355469 233.0625 109.265625 228.203125 C 112.179688 223.34375 115.207031 218.5625 118.355469 213.851562 C 121.503906 209.140625 124.761719 204.511719 128.136719 199.960938 C 131.511719 195.410156 134.996094 190.945312 138.589844 186.566406 C 142.183594 182.191406 145.882812 177.902344 149.6875 173.703125 C 153.488281 169.507812 157.394531 165.40625 161.398438 161.398438 C 165.40625 157.394531 169.507812 153.488281 173.703125 149.6875 C 177.902344 145.882812 182.1875 142.183594 186.566406 138.589844 C 190.945312 134.996094 195.410156 131.511719 199.960938 128.136719 C 204.511719 124.761719 209.140625 121.503906 213.851562 118.355469 C 218.5625 115.207031 223.34375 112.179688 228.203125 109.265625 C 233.0625 106.355469 237.988281 103.5625 242.984375 100.894531 C 247.980469 98.222656 253.039062 95.675781 258.160156 93.253906 C 263.28125 90.832031 268.457031 88.539062 273.691406 86.371094 C 278.925781 84.203125 284.207031 82.164062 289.542969 80.253906 C 294.875 78.347656 300.253906 76.570312 305.671875 74.925781 C 311.09375 73.28125 316.550781 71.773438 322.046875 70.394531 C 327.539062 69.019531 333.066406 67.777344 338.621094 66.671875 C 344.175781 65.566406 349.757812 64.601562 355.359375 63.769531 C 360.964844 62.9375 366.585938 62.246094 372.222656 61.6875 C 377.859375 61.132812 383.507812 60.71875 389.164062 60.441406 C 394.820312 60.160156 400.484375 60.023438 406.148438 60.023438 C 411.8125 60.023438 417.472656 60.160156 423.132812 60.441406 C 428.789062 60.71875 434.4375 61.132812 440.074219 61.6875 C 445.710938 62.246094 451.332031 62.9375 456.933594 63.769531 C 462.539062 64.601562 468.117188 65.566406 473.671875 66.671875 C 479.230469 67.777344 484.753906 69.019531 490.25 70.394531 C 495.742188 71.773438 501.203125 73.28125 506.621094 74.925781 C 512.042969 76.570312 517.421875 78.347656 522.753906 80.253906 C 528.085938 82.164062 533.371094 84.203125 538.605469 86.371094 C 543.835938 88.539062 549.015625 90.832031 554.136719 93.253906 C 559.257812 95.675781 564.3125 98.222656 569.308594 100.894531 C 574.304688 103.5625 579.234375 106.355469 584.089844 109.265625 C 588.949219 112.179688 593.734375 115.207031 598.445312 118.355469 C 603.152344 121.503906 607.785156 124.761719 612.332031 128.136719 C 616.882812 131.511719 621.347656 134.996094 625.726562 138.589844 C 630.105469 142.183594 634.394531 145.882812 638.589844 149.6875 C 642.789062 153.488281 646.890625 157.394531 650.894531 161.398438 C 654.898438 165.40625 658.804688 169.507812 662.609375 173.703125 C 666.414062 177.902344 670.113281 182.191406 673.707031 186.566406 C 677.300781 190.945312 680.785156 195.410156 684.15625 199.960938 C 687.53125 204.511719 690.792969 209.140625 693.941406 213.851562 C 697.085938 218.5625 700.117188 223.34375 703.027344 228.203125 C 705.941406 233.0625 708.730469 237.988281 711.402344 242.984375 C 714.074219 247.980469 716.617188 253.039062 719.039062 258.160156 C 721.460938 263.28125 723.757812 268.457031 725.925781 273.691406 C 728.09375 278.925781 730.132812 284.207031 732.039062 289.542969 C 733.949219 294.875 735.722656 300.253906 737.367188 305.671875 C 739.011719 311.09375 740.523438 316.550781 741.898438 322.046875 C 743.277344 327.539062 744.515625 333.066406 745.621094 338.621094 C 746.726562 344.179688 747.695312 349.757812 748.527344 355.359375 C 749.359375 360.964844 750.050781 366.585938 750.605469 372.222656 C 751.160156 377.859375 751.578125 383.507812 751.855469 389.164062 C 752.132812 394.820312 752.273438 400.484375 752.273438 406.148438 Z M 752.273438 406.148438 " fill-opacity="1" fill-rule="nonzero"/></g><g fill="#000000" fill-opacity="1"><g transform="translate(198.338811, 564.727485)"><g><path d="M -11.640625 -320.09375 L 76.046875 -320.09375 L 142.78125 -217.65625 L 209.515625 -320.09375 L 297.203125 -320.09375 L 179.25 -143.546875 L 179.25 0 L 106.3125 0 L 106.3125 -143.546875 Z M -11.640625 -320.09375 "/></g></g></g><g fill="#000000" fill-opacity="1"><g transform="translate(464.493334, 564.727485)"><g><path d="M 67.515625 -83.03125 C 79.921875 -83.03125 90.457031 -78.695312 99.125 -70.03125 C 107.789062 -61.363281 112.125 -50.820312 112.125 -38.40625 C 112.125 -26.25 107.789062 -15.835938 99.125 -7.171875 C 90.457031 1.484375 79.921875 5.8125 67.515625 5.8125 C 55.359375 5.8125 44.945312 1.484375 36.28125 -7.171875 C 27.613281 -15.835938 23.28125 -26.25 23.28125 -38.40625 C 23.28125 -50.820312 27.613281 -61.363281 36.28125 -70.03125 C 44.945312 -78.695312 55.359375 -83.03125 67.515625 -83.03125 Z M 67.515625 -83.03125 "/></g></g></g></svg>